# xmcd CD database file
# Copyright (C) 1996 Ti Kan
#
# Track frame offsets:
# 	150
# 	16135
# 	27817
# 	36910
# 	55245
# 	71265
# 	83687
# 	95487
#
# Disc length: 1465 seconds
#
# Revision: 1
# Processed by: cddbd v1.4b41PL1 Copyright (c) Steve Scherf et al.
# Submitted via: DiscPlay 3.4.1
#
DISCID=5605b708
DTITLE=Charley Pride - Greatest Hits
DYEAR=1900
DGENRE=
TTITLE0=You're My Jamaica
TTITLE1=When I Stop Leaving (I'll Be Gone)
TTITLE2=Honky Tonk Blues
TTITLE3=Where Do I Put Her Memory
TTITLE4=Roll On Mississippi
TTITLE5=A Whole Lotta Things To Sing About
TTITLE6=(She' Just) An Old Love Turned Memory
TTITLE7=Burger And Fries
EXTD=
EXTT0=
EXTT1=
EXTT2=
EXTT3=
EXTT4=
EXTT5=
EXTT6=
EXTT7=
PLAYORDER=
